<svg width="215" height="120" viewBox="0 0 215 120" fill="none" xmlns="http://www.w3.org/2000/svg">
<path d="M0.761881 57.5053C0.761881 55.8703 0.620792 54.6864 0.338614 53.9535C0.112871 53.2206 0 52.544 0 51.9239C0 51.0782 0.451485 50.4017 1.35445 49.8943C2.25742 49.3305 3.3297 49.0486 4.57128 49.0486C7.4495 49.0486 9.70692 49.8097 11.3436 51.3319C13.0366 52.7977 13.8832 54.5736 13.8832 56.6596V103.256C13.8832 104.891 14.1371 106.187 14.645 107.146C15.153 108.104 16.1688 108.584 17.6926 108.584C19.8371 108.584 21.9817 107.879 24.1262 106.469C26.3272 105.004 28.2742 102.918 29.9673 100.211C31.7168 97.4489 33.1277 94.0944 34.2 90.148C35.3287 86.2016 35.893 81.7195 35.893 76.7019C35.893 73.2065 35.6109 70.303 35.0465 67.9915C34.5386 65.6801 33.9178 63.8196 33.1841 62.4101C32.4505 60.9443 31.6604 59.845 30.8138 59.1121C30.0237 58.3791 29.3465 57.7872 28.7822 57.3362C28.3307 56.9979 27.8227 56.8006 27.2584 56.7442C26.694 56.6314 26.4119 56.3214 26.4119 55.814C26.4119 55.0247 26.6094 54.1508 27.0044 53.1924C27.4559 52.1776 28.0203 51.2474 28.6975 50.4017C29.3747 49.4996 30.1366 48.7667 30.9831 48.203C31.8297 47.5828 32.6762 47.2727 33.5227 47.2727C35.2722 47.2727 37.05 48.1466 38.8559 49.8943C40.6618 51.5856 42.2985 53.8407 43.7658 56.6596C45.2896 59.4785 46.5311 62.692 47.4906 66.3002C48.45 69.852 48.9297 73.4884 48.9297 77.2093C48.9297 83.0726 48.1396 88.5976 46.5594 93.7844C44.9792 98.9711 42.7217 103.51 39.7871 107.4C36.9089 111.29 33.4099 114.362 29.2901 116.617C25.1703 118.872 20.5708 120 15.4916 120C12.7262 120 10.3841 119.549 8.46534 118.647C6.60296 117.745 5.10742 116.533 3.97871 115.011C2.85 113.488 2.03168 111.712 1.52376 109.683C1.01584 107.597 0.761881 105.398 0.761881 103.087V57.5053Z" fill="#1CE783"/>
<path d="M66.2836 31.8816C64.8727 31.8816 63.5183 31.5997 62.2202 31.0359C60.9787 30.4722 59.8782 29.7111 58.9188 28.7526C58.0158 27.7942 57.2821 26.6949 56.7178 25.4545C56.1534 24.1579 55.8712 22.7766 55.8712 21.3108C55.8712 19.7886 56.1534 18.3791 56.7178 17.0825C57.2821 15.7858 58.0158 14.6864 58.9188 13.7844C59.8782 12.8259 60.9787 12.093 62.2202 11.5856C63.5183 11.0218 64.8727 10.74 66.2836 10.74C67.8074 10.74 69.2183 11.0218 70.5163 11.5856C71.8143 12.093 72.9148 12.8259 73.8178 13.7844C74.7772 14.6864 75.5108 15.7858 76.0187 17.0825C76.5831 18.3791 76.8653 19.7886 76.8653 21.3108C76.8653 22.7766 76.5831 24.1579 76.0187 25.4545C75.5108 26.6949 74.7772 27.7942 73.8178 28.7526C72.9148 29.7111 71.8143 30.4722 70.5163 31.0359C69.2183 31.5997 67.8074 31.8816 66.2836 31.8816ZM70.2623 100.634C70.2623 101.029 70.2905 101.677 70.347 102.579C70.4034 103.425 70.5727 104.299 70.8549 105.201C71.1371 106.103 71.5886 106.892 72.2093 107.569C72.8301 108.245 73.7049 108.584 74.8336 108.584C76.5267 108.584 77.994 107.963 79.2356 106.723C80.5336 105.483 81.6341 103.932 82.5371 102.072C83.4965 100.211 84.2866 98.21 84.9074 96.0677C85.5281 93.8689 86.0361 91.8111 86.4311 89.8943C86.7697 88.1466 87.2776 86.8781 87.9549 86.0888C88.6885 85.2995 89.4504 84.8767 90.2405 84.8203C91.087 84.7075 91.9054 84.9049 92.6955 85.4123C93.542 85.9197 94.2757 86.5962 94.8965 87.4419C95.5737 88.2311 96.0534 89.1332 96.3356 90.148C96.6742 91.1628 96.7306 92.1212 96.5049 93.0233C95.7148 95.8985 94.6707 98.9147 93.3727 102.072C92.1311 105.229 90.5227 108.132 88.5474 110.782C86.5722 113.432 84.2019 115.631 81.4366 117.378C78.6712 119.126 75.4262 120 71.7014 120C69.3876 120 67.3277 119.549 65.5217 118.647C63.7158 117.801 62.192 116.646 60.9504 115.18C59.7089 113.714 58.7495 111.994 58.0722 110.021C57.4514 108.048 57.141 105.962 57.141 103.763V57.5053C57.141 55.8703 57 54.6864 56.7178 53.9535C56.492 53.2206 56.3792 52.544 56.3792 51.9239C56.3792 51.0782 56.8306 50.4017 57.7336 49.8943C58.6366 49.3305 59.7089 49.0486 60.9504 49.0486C63.8287 49.0486 66.0861 49.8097 67.7227 51.3319C69.4158 52.7977 70.2623 54.5736 70.2623 56.6596V100.634Z" fill="#1CE783"/>
<path d="M105.986 71.0359C105.986 67.5405 106.353 64.5243 107.087 61.9873C107.877 59.3939 108.949 57.2798 110.303 55.6448C111.658 53.9535 113.21 52.7132 114.959 51.9239C116.765 51.1346 118.684 50.74 120.716 50.74C123.03 50.74 125.287 51.3037 127.488 52.4313C129.689 53.5588 131.636 55.2784 133.329 57.5899C135.079 59.9013 136.461 62.833 137.477 66.3848C138.549 69.9366 139.086 74.1367 139.086 78.9852C139.086 82.3679 138.86 85.7505 138.408 89.1332C138.013 92.4595 137.364 95.6448 136.461 98.6892C137.082 98.9147 137.675 99.0557 138.239 99.1121C138.86 99.1121 139.481 99.1121 140.101 99.1121C141.964 99.1121 143.6 98.7738 145.011 98.0973C146.479 97.4207 147.72 96.5187 148.736 95.3911C149.808 94.2636 150.655 92.9387 151.276 91.4165C151.896 89.8943 152.348 88.2875 152.63 86.5962C152.743 85.9197 153.11 85.3559 153.731 84.9049C154.408 84.4538 155.17 84.1438 156.016 83.9746C156.863 83.8055 157.737 83.8055 158.64 83.9746C159.6 84.1438 160.418 84.5384 161.095 85.1586C161.773 85.7223 162.252 86.5398 162.535 87.611C162.873 88.6258 162.873 89.9507 162.535 91.5856C162.027 93.9535 161.18 96.1804 159.995 98.2664C158.866 100.296 157.427 102.1 155.678 103.679C153.928 105.257 151.868 106.498 149.498 107.4C147.128 108.302 144.475 108.753 141.54 108.753C139.96 108.753 138.437 108.668 136.969 108.499C135.502 108.33 134.063 108.02 132.652 107.569C130.507 111.29 127.714 114.278 124.271 116.533C120.829 118.844 116.568 120 111.489 120C107.482 120 103.954 119.295 100.907 117.886C97.9158 116.476 95.3762 114.503 93.288 111.966C91.2564 109.373 89.7044 106.3 88.6321 102.748C87.6163 99.1966 87.1083 95.3066 87.1083 91.0782V8.45666C87.1083 7.21635 86.9955 6.22974 86.7697 5.49683C86.6004 4.76392 86.4029 4.20014 86.1772 3.8055C86.0078 3.35448 85.8103 3.01621 85.5846 2.7907C85.4153 2.50881 85.3306 2.22692 85.3306 1.94503C85.3306 1.60677 85.4999 1.32488 85.8385 1.09937C86.1772 0.873855 86.6286 0.676533 87.193 0.5074C87.7573 0.338266 88.3499 0.225511 88.9707 0.169133C89.6479 0.0563777 90.297 0 90.9177 0C93.796 0 96.0534 0.761099 97.69 2.2833C99.3831 3.74912 100.23 5.52502 100.23 7.61099V88.7104C100.23 91.5856 100.484 94.2354 100.991 96.6596C101.499 99.0839 102.261 101.198 103.277 103.002C104.293 104.75 105.563 106.131 107.087 107.146C108.667 108.104 110.501 108.584 112.589 108.584C114.734 108.584 116.568 108.048 118.091 106.977C119.615 105.849 120.885 104.355 121.901 102.495C119.418 100.747 117.189 98.7174 115.213 96.4059C113.294 94.0381 111.63 91.5011 110.219 88.7949C108.864 86.0324 107.82 83.1572 107.087 80.1691C106.353 77.1247 105.986 74.0803 105.986 71.0359ZM116.737 70.3594C116.737 74.5314 117.471 78.4778 118.938 82.1987C120.462 85.9197 122.493 89.1332 125.033 91.8393C125.372 89.8097 125.597 87.8083 125.71 85.8351C125.823 83.8055 125.88 81.9732 125.88 80.3383C125.88 74.5314 125.259 70.0493 124.017 66.8922C122.832 63.735 121.449 62.1564 119.869 62.1564C118.74 62.1564 117.922 62.9175 117.414 64.4397C116.963 65.9056 116.737 67.8788 116.737 70.3594Z" fill="#1CE783"/>
<path d="M192.502 64.778C192.502 67.9915 191.937 71.2896 190.809 74.6723C189.736 78.055 188.1 81.2685 185.899 84.3129C183.754 87.3009 181.074 90.007 177.857 92.4313C174.696 94.7992 171.028 96.6032 166.852 97.8436C167.416 99.3094 168.15 100.719 169.053 102.072C170.012 103.369 171.141 104.496 172.439 105.455C173.737 106.413 175.233 107.174 176.926 107.738C178.675 108.302 180.679 108.584 182.936 108.584C186.322 108.584 189.229 107.963 191.655 106.723C194.082 105.426 196.114 103.735 197.75 101.649C199.443 99.5631 200.798 97.2234 201.814 94.63C202.83 92.0366 203.591 89.4151 204.099 86.7653C204.494 84.8485 205.284 83.58 206.47 82.9598C207.711 82.2833 208.953 82.1142 210.194 82.4524C211.492 82.7907 212.593 83.5236 213.496 84.6512C214.455 85.7223 214.85 87.019 214.681 88.5412C214.455 90.2889 214.06 92.2903 213.496 94.5455C212.988 96.8006 212.198 99.0839 211.126 101.395C210.053 103.707 208.671 105.99 206.978 108.245C205.341 110.444 203.309 112.417 200.882 114.165C198.456 115.913 195.606 117.322 192.333 118.393C189.059 119.464 185.306 120 181.074 120C177.123 120 173.285 119.211 169.561 117.632C165.892 116.11 162.619 113.911 159.741 111.036C156.919 108.104 154.634 104.524 152.884 100.296C151.191 96.0113 150.344 91.1628 150.344 85.7505C150.344 80.2819 151.106 75.2079 152.63 70.5285C154.154 65.7928 156.157 61.7054 158.64 58.2664C161.124 54.8273 163.945 52.1494 167.106 50.2326C170.266 48.2593 173.511 47.2727 176.841 47.2727C179.268 47.2727 181.44 47.6956 183.359 48.5412C185.334 49.3869 186.999 50.599 188.354 52.1776C189.708 53.6998 190.724 55.5321 191.401 57.6744C192.135 59.8168 192.502 62.1846 192.502 64.778ZM164.566 85.2431C164.566 85.7505 164.594 86.2579 164.651 86.7653C164.707 87.2727 164.735 87.8083 164.735 88.3721C166.88 87.3573 168.827 86.0606 170.577 84.482C172.326 82.9035 173.822 81.0994 175.063 79.0698C176.305 77.0402 177.264 74.8414 177.941 72.4736C178.619 70.0493 178.957 67.5405 178.957 64.9471C178.957 63.0303 178.619 61.5363 177.941 60.4651C177.321 59.3939 176.446 58.8584 175.317 58.8584C173.906 58.8584 172.636 59.3376 171.508 60.296C170.435 61.2544 169.476 62.5229 168.63 64.1015C167.839 65.6237 167.162 67.3714 166.598 69.3446C166.09 71.2615 165.667 73.2065 165.328 75.1797C164.989 77.1529 164.764 79.0416 164.651 80.8457C164.538 82.5934 164.51 84.0592 164.566 85.2431Z" fill="#1CE783"/>
</svg>
